# xmcd
#
# Track frame offsets:
#	150
#	25121
#	45542
#	62932
#	86441
#	104855
#	135423
#	151674
#	178584
#	193368
#	234693
#
# Disc length: 3506 seconds
#
# Revision: 2
# Processed by: cddbd v1.5.2PL0 Copyright (c) Steve Scherf et al.
# Submitted via: EZCDAudioConverter 3.1.7.1
#
DISCID=920db00b
DTITLE=Will Wilde - Live In Hamburg
DYEAR=2015
DGENRE=Blues
TTITLE0=If I Get My Hands On You
TTITLE1=Angel Came Down
TTITLE2=Thirty Eight
TTITLE3=What Makes People
TTITLE4=Your Days Are Numbered
TTITLE5=Paranoia
TTITLE6=Philby
TTITLE7=The Girl I Love
TTITLE8=Jealous Woman
TTITLE9=A Man And The Blues
TTITLE10=On The Road Again
EXTD=
EXTT0=
EXTT1=
EXTT2=
EXTT3=
EXTT4=
EXTT5=
EXTT6=
EXTT7=
EXTT8=
EXTT9=
EXTT10=
PLAYORDER=
